<?xml version="1.0" standalone="no"?>
<!DOCTYPE svg PUBLIC "-//W3C//DTD SVG 20010904//EN"
 "http://www.w3.org/TR/2001/REC-SVG-20010904/DTD/svg10.dtd">
<svg version="1.0" xmlns="http://www.w3.org/2000/svg"
 width="512.000000pt" height="512.000000pt" viewBox="0 0 512.000000 512.000000"
 preserveAspectRatio="xMidYMid meet">
<metadata>
Created by potrace 1.11, written by Peter Selinger 2001-2013
</metadata>
<g transform="translate(0.000000,512.000000) scale(0.100000,-0.100000)"
fill="#000000" stroke="none">
<path d="M5007 5114 c-1 -1 -29 -4 -62 -7 -143 -14 -323 -64 -427 -119 -124
-66 -239 -214 -278 -357 -26 -99 -19 -243 16 -323 23 -52 95 -79 214 -80 103
-2 148 5 220 34 168 66 289 195 351 375 36 106 66 270 74 407 l5 76 -56 -2
c-30 -2 -56 -3 -57 -4z"/>
<path d="M4025 4947 c-173 -65 -328 -197 -398 -341 -85 -173 -49 -409 86 -562
53 -60 88 -77 140 -69 90 15 179 92 226 197 l27 60 -18 54 c-21 61 -24 167 -8
229 6 22 12 47 14 55 2 8 14 38 27 65 25 57 33 192 17 283 -11 61 -19 63 -113
29z"/>
<path d="M3332 4405 c-95 -64 -190 -172 -242 -275 -21 -41 -57 -135 -65 -170
-2 -8 -8 -34 -13 -58 -6 -24 -10 -79 -10 -124 0 -136 41 -238 136 -339 50 -53
63 -62 102 -66 134 -15 307 157 360 359 12 46 11 48 -18 85 -62 79 -137 246
-157 350 -15 80 -24 154 -26 206 -1 32 -5 60 -9 62 -4 2 -30 -11 -58 -30z"/>
<path d="M4730 4149 c-30 -4 -82 -18 -116 -32 -118 -50 -259 -59 -347 -22 -33
14 -40 14 -79 -2 -65 -25 -149 -93 -182 -146 -20 -33 -31 -65 -34 -102 l-4
-54 58 -58 c100 -99 237 -152 379 -147 181 6 320 90 446 267 47 67 100 182
113 243 6 28 4 32 -21 39 -54 13 -159 20 -213 14z"/>
<path d="M2776 3851 c-84 -64 -114 -93 -161 -155 -97 -130 -160 -320 -157
-476 3 -138 84 -299 185 -366 50 -33 93 -33 161 0 116 57 195 156 245 308 l22
67 -40 58 c-84 123 -134 250 -157 393 -3 19 -7 42 -9 50 -2 8 -5 45 -6 82 -1
37 -5 72 -9 78 -5 7 -30 -6 -74 -39z"/>
<path d="M3686 3588 c-215 -75 -369 -266 -308 -383 39 -77 166 -164 277 -190
216 -50 526 59 681 240 45 53 94 124 94 137 0 4 -19 8 -42 9 -72 1 -165 13
-253 34 -112 26 -189 60 -300 134 l-70 47 -79 -28z"/>
<path d="M2250 3322 c-109 -74 -217 -205 -268 -327 -102 -242 -82 -469 54
-623 81 -93 138 -106 238 -55 111 56 212 198 245 344 7 32 5 41 -19 69 -38 44
-104 172 -129 249 -27 84 -50 208 -55 299 -2 40 -5 75 -7 77 -2 2 -29 -13 -59
-33z"/>
<path d="M3160 3054 c-178 -56 -320 -192 -337 -324 -7 -48 18 -92 85 -151 145
-128 318 -149 577 -71 88 27 206 102 285 181 50 50 120 144 120 161 0 3 -17 7
-37 8 -245 14 -412 64 -560 168 -67 48 -68 48 -133 28z"/>
<path d="M1720 2786 c-149 -102 -243 -223 -298 -382 -85 -245 -54 -450 89
-592 57 -56 85 -71 133 -66 39 3 127 47 172 87 63 54 119 149 154 259 l18 58
-35 45 c-50 66 -108 187 -136 285 -27 91 -33 131 -43 255 -3 44 -6 81 -7 81
-1 1 -22 -12 -47 -30z"/>
<path d="M2650 2522 c-168 -50 -289 -141 -345 -259 -33 -69 -32 -116 2 -162
89 -117 229 -183 389 -183 83 0 230 36 320 78 69 32 189 120 232 168 28 32
102 139 102 147 0 2 -30 6 -67 7 -207 9 -410 73 -539 171 -49 37 -64 42 -94
33z"/>
<path d="M2125 1982 c-83 -13 -241 -97 -292 -156 -71 -81 -106 -168 -91 -224
5 -19 32 -57 63 -87 149 -150 380 -178 627 -78 78 31 211 118 259 170 43 45
121 154 115 160 -2 3 -40 7 -83 9 -185 12 -368 69 -499 157 -46 30 -88 51 -99
49z"/>
<path d="M1550 1600 c-72 -30 -80 -33 -126 -44 -24 -5 -197 -173 -710 -687
-374 -373 -680 -681 -681 -682 -1 -2 33 -38 76 -80 l79 -77 678 679 c374 374
680 683 680 688 7 37 47 171 59 194 18 35 11 36 -55 9z"/>
</g>
</svg>
